<?xml version="1.0" standalone="no"?>
<!DOCTYPE svg PUBLIC "-//W3C//DTD SVG 1.1//EN" "http://www.w3.org/Graphics/SVG/1.1/DTD/svg11.dtd" >
<svg xmlns="http://www.w3.org/2000/svg">
<metadata>
This is a custom SVG webfont generated by Font Squirrel.
Copyright   : C2009 House IndustriesBrand Design Co Inc All Rights Reserved
Designer    : Kai Bernau and Susana Carvalho with Christian Schwartz
Foundry     : House Industries
Foundry URL : httpwwwhouseindustriescom
</metadata>
<defs>
<font id="webfontZ3FVDSXd" horiz-adv-x="1353" >
<font-face units-per-em="2048" ascent="1614" descent="-434" />
<missing-glyph horiz-adv-x="366" />
<glyph unicode=" "  horiz-adv-x="366" />
<glyph unicode="&#x09;" horiz-adv-x="366" />
<glyph unicode="&#xa0;" horiz-adv-x="366" />
<glyph unicode="!" horiz-adv-x="450" d="M170 373l-12 1020h137l-14 -1020h-111zM225 -12q-39 0 -67.5 27.5t-28.5 68.5t28.5 68.5t67.5 27.5t68 -27.5t29 -68.5t-29 -68.5t-68 -27.5z" />
<glyph unicode="&#x22;" horiz-adv-x="538" d="M340 1042l-16 351h137l-17 -351h-104zM94 1042l-16 351h137l-16 -351h-105z" />
<glyph unicode="#" horiz-adv-x="892" d="M262 729h-149v100h174l55 224h111l-56 -224h201l57 224h111l-57 -224h141v-100h-166l-55 -225h153v-98h-180l-51 -211h-113l54 211h-201l-53 -211h-111l53 211h-139v98h164zM575 729h-202l-58 -225h203z" />
<glyph unicode="$" horiz-adv-x="845" d="M379 -238v224q-150 14 -234 120v-106h-96v317h86q37 -209 244 -231v414l-39 12q-121 41 -186.5 107.5t-65.5 183.5q0 113 83 184.5t208 79.5v184h96v-190q117 -14 170 -90v82h96v-295h-88q-18 178 -178 205v-367l45 -14q143 -49 210 -118t67 -188q0 -131 -86 -205.5 t-236 -84.5v-224h-96zM676 268.5q0 75.5 -44 118.5t-157 80v-381q90 10 145.5 58.5t55.5 124zM211 807q0 -74 39 -111t129 -67v336q-76 -10 -122 -50t-46 -108z" />
<glyph unicode="%" horiz-adv-x="1284" d="M327.5 553q-106.5 0 -184 74.5t-77.5 183.5t77.5 183.5t184 74.5t183.5 -74.5t77 -183.5t-77 -183.5t-183.5 -74.5zM328 653q63 0 106 45t43 113t-43 112t-106 44q-66 0 -109 -44t-43 -112q0 -70 43 -114t109 -44zM262 0l633 1053h127l-633 -1053h-127zM956.5 -16 q-106.5 0 -184.5 74.5t-78 181.5q0 111 78 185.5t184 74.5q109 0 187 -75t78 -185q0 -109 -79 -182.5t-185.5 -73.5zM956 84q66 0 109 44t43 112q0 70 -43 113.5t-109 43.5q-63 0 -106 -45t-43 -112.5t43 -111.5t106 -44z" />
<glyph unicode="&#x26;" horiz-adv-x="1357" d="M1268 659h-127q-16 -213 -111 -380l144 -181h139v-98h-223l-136 170q-166 -186 -419 -186q-203 0 -330 107.5t-127 279.5q0 152 94 255t266 195l-26 37q-109 141 -109 270q0 121 81 201t212 80q127 0 202.5 -78t75.5 -198q0 -186 -256 -332l332 -422q59 123 72 280h-127 v99h373v-99zM535 100q215 0 346 164l-377 475q-152 -84 -220.5 -165.5t-68.5 -196.5q0 -127 89.5 -202t230.5 -75zM432 1130q0 -94 92 -210l29 -37q195 115 195 254q0 70 -41 115.5t-111 45.5q-76 0 -120 -46t-44 -122z" />
<glyph unicode="'" horiz-adv-x="292" d="M94 1042l-16 351h137l-16 -351h-105z" />
<glyph unicode="(" horiz-adv-x="559" d="M432 -279q-348 360 -348 874.5t348 874.5l80 -67q-299 -336 -299 -807t299 -807z" />
<glyph unicode=")" horiz-adv-x="559" d="M129 1470q346 -358 346 -874t-346 -875l-82 68q299 336 299 807t-299 807z" />
<glyph unicode="*" horiz-adv-x="733" d="M313 881l15 190l-152 -106l-53 92l170 80l-170 77l53 95l152 -109l-15 193h109l-16 -193l151 109l53 -95l-170 -77l170 -80l-53 -92l-151 106l16 -190h-109z" />
<glyph unicode="+" horiz-adv-x="684" d="M399 459v-228h-114v228h-207v108h207v226h114v-226h207v-108h-207z" />
<glyph unicode="," horiz-adv-x="356" d="M86 -168l53 164q-57 23 -57 88q0 41 28.5 68.5t67.5 27.5t67.5 -27.5t28.5 -68.5q0 -35 -28 -78l-88 -174h-72z" />
<glyph unicode="-" horiz-adv-x="481" d="M74 336v106h332v-106h-332z" />
<glyph unicode="." horiz-adv-x="356" d="M178 -12q-39 0 -67.5 27.5t-28.5 68.5t28.5 68.5t67.5 27.5t67.5 -27.5t28.5 -68.5t-28.5 -68.5t-67.5 -27.5z" />
<glyph unicode="/" horiz-adv-x="819" d="M6 -262l612 1716h130l-613 -1716h-129z" />
<glyph unicode="0" horiz-adv-x="1036" d="M518.5 -16q-194.5 0 -319.5 151.5t-125 391t124 391t320.5 151.5t321.5 -151.5t125 -391t-126 -391t-320.5 -151.5zM518.5 92q145.5 0 229 120t83.5 314.5t-83.5 313t-229 118.5t-229.5 -118.5t-84 -313t84 -314.5t229.5 -120z" />
<glyph unicode="1" horiz-adv-x="514" d="M61 0v98h150v848h-178v107h307v-955h133v-98h-412z" />
<glyph unicode="2" horiz-adv-x="876" d="M37 0v70l350 323l96 92q31 31 76 84.5t63.5 100.5t18.5 96q0 94 -56.5 143t-146.5 49q-86 0 -147.5 -52t-89.5 -146l-113 39q37 127 132 198.5t218 71.5q143 0 237.5 -82t94.5 -225q0 -180 -287 -432l-254 -224h457v156h107v-262h-756z" />
<glyph unicode="3" horiz-adv-x="901" d="M102 813v240h672v-76l-295 -318q152 -4 249 -92t97 -235q0 -156 -106.5 -252t-284.5 -96q-139 0 -245.5 69.5t-151.5 173.5l113 56q90 -188 284 -189q119 0 189.5 62.5t70.5 177.5q0 113 -73.5 175t-190.5 62q-86 0 -164 -34l-14 22l356 391h-399v-137h-107z" />
<glyph unicode="4" horiz-adv-x="933" d="M457 0v98h149v146h-567v75l614 734h78v-707h143v-102h-143v-146h137v-98h-411zM606 346v500l-409 -500h409z" />
<glyph unicode="5" horiz-adv-x="878" d="M621 827v121h-379v-307q80 49 184 49q166 0 270.5 -98t104.5 -254q0 -160 -102.5 -257t-280.5 -97q-131 0 -229.5 57t-143.5 143l109 60q76 -152 264 -152q115 0 183.5 66.5t68.5 179.5q0 111 -72 177.5t-195 66.5q-150 0 -251 -95l-23 11v555h598v-226h-106z" />
<glyph unicode="6" horiz-adv-x="901" d="M452.5 -16q-161.5 0 -270 100t-108.5 258q0 133 121 299l297 412h139l-283 -391q53 35 131 34q150 0 251 -100t101 -254q0 -156 -108.5 -257t-270 -101zM453 92q111 0 179 70.5t68 179.5q0 111 -67.5 182.5t-177.5 71.5q-113 0 -181.5 -72.5t-68.5 -181.5t67.5 -179.5 t180.5 -70.5z" />
<glyph unicode="7" horiz-adv-x="843" d="M55 813v240h744v-76l-510 -977h-133l497 948h-491v-135h-107z" />
<glyph unicode="8" horiz-adv-x="872" d="M434 -16q-162 0 -266.5 91t-104.5 228q0 100 58.5 175t154.5 108q-145 68 -145 217q0 109 85 187.5t218 78.5q135 0 219 -78t84 -188q0 -147 -145 -217q98 -35 156.5 -109t58.5 -174q0 -137 -104.5 -228t-268.5 -91zM434.5 90q106.5 0 174 62.5t67.5 161t-65.5 161 t-176.5 62.5q-109 0 -174 -62.5t-65 -161t66.5 -161t173 -62.5zM434 635q76 0 126 47t50 119q0 70 -50 117t-126 47q-74 0 -124 -47.5t-50 -116.5q0 -72 49 -119t125 -47z" />
<glyph unicode="9" horiz-adv-x="903" d="M449 1069q162 0 271 -100.5t109 -257.5q0 -131 -120 -301l-297 -410h-140l283 391q-53 -37 -131 -37q-150 0 -251 101.5t-101 253.5q0 156 108.5 258t268.5 102zM449 961q-109 0 -177.5 -71t-68.5 -179q0 -113 67.5 -183.5t178.5 -70.5q113 0 181 73.5t68 180.5 q0 111 -69 180.5t-180 69.5z" />
<glyph unicode=":" horiz-adv-x="370" d="M184 430q-39 0 -67.5 27.5t-28.5 68.5t28.5 69t67.5 28t68 -28t29 -69t-29 -68.5t-68 -27.5zM184 -12q-39 0 -67.5 27.5t-28.5 68.5t28.5 68.5t67.5 27.5t68 -27.5t29 -68.5t-29 -68.5t-68 -27.5z" />
<glyph unicode=";" horiz-adv-x="372" d="M184 430q-39 0 -67.5 27.5t-28.5 68.5t28.5 69t67.5 28t68 -28t29 -69t-29 -68.5t-68 -27.5zM94 -168l51 164q-57 23 -57 88q0 41 28.5 68.5t67.5 27.5t68 -27.5t29 -68.5q0 -33 -27 -78l-88 -174h-72z" />
<glyph unicode="&#x3c;" horiz-adv-x="649" d="M573 213l-514 281v12l514 276v-118l-315 -166l315 -166v-119z" />
<glyph unicode="=" horiz-adv-x="684" d="M78 573v109h528v-109h-528zM78 340v106h528v-106h-528z" />
<glyph unicode="&#x3e;" horiz-adv-x="649" d="M76 213v119l317 166l-317 166v118l514 -280v-13z" />
<glyph unicode="?" horiz-adv-x="907" d="M342 369v389h59q135 0 210 78.5t75 195.5q0 121 -70.5 193.5t-185.5 72.5q-186 0 -280 -182l-101 58q53 106 150.5 170.5t228.5 64.5q178 0 285.5 -106.5t107.5 -272.5q0 -156 -96 -260t-260 -119v-282h-123zM401 -12q-39 0 -67.5 27.5t-28.5 68.5t28.5 68.5t67.5 27.5 t68 -27.5t29 -68.5t-29 -68.5t-68 -27.5z" />
<glyph unicode="@" horiz-adv-x="1519" d="M780 -367q-303 0 -504.5 199t-201.5 496q0 295 201.5 494.5t490.5 199.5q297 0 489.5 -188.5t192.5 -466.5q0 -188 -76 -290t-194 -102q-166 0 -211 162q-74 -154 -244 -153q-131 0 -219 94t-88 237.5t89 240.5t218 97q150 0 221 -135l-2 119h127v-424q0 -139 111 -139 q68 0 110.5 74.5t42.5 216.5q0 246 -154.5 401.5t-414.5 155.5q-250 0 -409.5 -170t-159.5 -424q0 -256 161.5 -425t419.5 -169q162 0 287 71l51 -90q-139 -82 -334 -82zM743 86q90 0 145.5 65.5t55.5 163.5q0 102 -55 169t-146 67q-88 0 -142 -66.5t-54 -169.5 q0 -98 54 -163.5t142 -65.5z" />
<glyph unicode="A" d="M1333 98v-98h-381v98h133l-100 277h-625l-102 -277h135v-98h-370v98h106l436 1196h-100v99h426v-99h-103l437 -1196h108zM674 1264l-277 -777h551z" />
<glyph unicode="B" horiz-adv-x="1210" d="M68 1294v99h594q193 0 295 -99.5t102 -255.5q0 -246 -217 -309q287 -68 286 -346q0 -172 -114.5 -277.5t-323.5 -105.5h-622v98h125v1196h-125zM326 104h352q156 0 235.5 77t79.5 208q0 133 -84 209t-241 76h-342v-570zM326 772h344q129 0 193.5 69.5t64.5 188.5 q0 115 -70 185.5t-209 70.5h-323v-514z" />
<glyph unicode="C" horiz-adv-x="1445" d="M80 696q2 309 203.5 512t496.5 203q301 0 434 -190v172h111v-389h-100q-35 141 -154 214.5t-283 73.5q-248 0 -407.5 -170t-159.5 -426q0 -258 163 -427t409 -169q301 0 475 236l102 -74q-209 -279 -579 -278q-301 0 -506 202.5t-205 509.5z" />
<glyph unicode="D" horiz-adv-x="1351" d="M68 1294v99h473q340 0 537.5 -191.5t197.5 -505t-196.5 -505t-538.5 -191.5h-473v98h125v1196h-125zM328 111h200q299 0 454 159.5t155 426t-155 426t-454 159.5h-200v-1171z" />
<glyph unicode="E" horiz-adv-x="1150" d="M926 1090v192h-598v-528h559v-107h-559v-536h626v192h109v-303h-995v98h125v1196h-125v99h966v-303h-108z" />
<glyph unicode="F" horiz-adv-x="1097" d="M926 1090v192h-598v-569h571v-107h-571v-508h135v-98h-395v98h125v1196h-125v99h966v-303h-108z" />
<glyph unicode="G" horiz-adv-x="1484" d="M1241 0v154q-170 -170 -455 -170q-297 0 -500.5 196.5t-203.5 515.5q0 305 205 509t495 204q293 0 422 -176v160h111v-359h-105q-78 256 -419 256q-248 0 -409 -169t-161 -425q0 -260 165 -428t413 -168q268 0 436 168v293h-420v107h547v-668h-121z" />
<glyph unicode="H" horiz-adv-x="1411" d="M68 1294v99h393v-99h-133v-549h757v549h-135v99h393v-99h-124v-1196h124v-98h-393v98h135v543h-757v-543h133v-98h-393v98h125v1196h-125z" />
<glyph unicode="I" horiz-adv-x="522" d="M70 1294v99h383v-99h-125v-1196h125v-98h-383v98h125v1196h-125z" />
<glyph unicode="J" horiz-adv-x="944" d="M487 1294v99h396v-99h-123v-940q0 -180 -100.5 -275t-264.5 -95q-242 0 -356 206l111 66q84 -156 241 -156q233 0 234 258v936h-138z" />
<glyph unicode="K" horiz-adv-x="1245" d="M68 1294v99h385v-99h-125v-676l559 676h-119v99h379v-99h-115l-422 -506l490 -690h104v-98h-383v98h121l-418 592l-196 -233v-359h125v-98h-385v98h125v1196h-125z" />
<glyph unicode="L" horiz-adv-x="1040" d="M68 1294v99h385v-99h-125v-1183h549v192h110v-303h-919v98h125v1196h-125z" />
<glyph unicode="M" horiz-adv-x="1685" d="M1616 98v-98h-397v98h141v1086l-494 -762h-55l-494 770v-1094h144v-98h-389v98h125v1196h-129v99h266l508 -793l510 793h268v-99h-129v-1196h125z" />
<glyph unicode="N" horiz-adv-x="1454" d="M1393 1393v-99h-125v-1294h-88l-865 1200v-1102h138v-98h-385v98h125v1196h-125v99h260l817 -1137v1038h-139v99h387z" />
<glyph unicode="O" horiz-adv-x="1589" d="M795 -16q-299 0 -507 203.5t-208 508.5t208 509t507 204q301 0 508.5 -204t207.5 -509t-207.5 -508.5t-508.5 -203.5zM794.5 100q247.5 0 411.5 170t164 426t-164 426t-411.5 170t-411.5 -170t-164 -426t164 -426t411.5 -170z" />
<glyph unicode="P" horiz-adv-x="1124" d="M68 1294v99h532q219 0 343 -117t124 -303.5t-123 -302t-344 -115.5h-272v-457h143v-98h-403v98h125v1196h-125zM328 662h260q166 0 253 82.5t87 228t-87 229.5t-253 84h-260v-624z" />
<glyph unicode="Q" horiz-adv-x="1613" d="M795 100q186 0 329 99l-194 209l92 77l195 -209q156 168 155 420q0 256 -165 426t-412.5 170t-411.5 -170t-164 -426t164 -426t412 -170zM795 -16q-299 0 -507 203.5t-208 508.5t208 509t507 204q301 0 508.5 -204t207.5 -509q0 -299 -208 -512l79 -86h166v-98h-237 l-105 111q-178 -127 -411 -127z" />
<glyph unicode="R" horiz-adv-x="1236" d="M987 0l-354 571h-305v-473h143v-98h-403v98h125v1196h-125v99h540q219 0 342 -117t123 -299q0 -143 -79 -244.5t-226 -138.5l309 -496h129v-98h-219zM328 678h262q174 0 259 79t85 222t-86 225t-258 82h-262v-608z" />
<glyph unicode="S" horiz-adv-x="1060" d="M555 -16q-125 0 -223.5 51t-147.5 133v-168h-110v406h102q18 -139 116.5 -223.5t252.5 -84.5q137 0 219 70t82 180q0 106 -61.5 165.5t-202.5 125.5l-113 53q-170 80 -250 162t-80 223q0 147 103.5 239.5t259.5 92.5q195 0 291 -141v125h110v-338h-104q-25 117 -98.5 179 t-184.5 62q-109 0 -177.5 -60t-68.5 -151q0 -92 56.5 -147t193.5 -121l113 -53q188 -88 268 -174t80 -242q0 -166 -119 -265t-307 -99z" />
<glyph unicode="T" horiz-adv-x="1159" d="M995 1090v192h-348v-1184h135v-98h-403v98h135v1184h-348v-192h-111v303h1049v-303h-109z" />
<glyph unicode="U" horiz-adv-x="1357" d="M1296 1393v-99h-125v-821q0 -236 -137 -362.5t-356 -126.5t-355.5 127t-136.5 362v821h-125v99h394v-99h-133v-813q0 -186 95 -284.5t261 -98.5q168 0 263 98.5t95 284.5v813h-133v99h393z" />
<glyph unicode="V" d="M1327 1393v-99h-102l-502 -1294h-82l-510 1294h-104v99h383v-99h-140l414 -1087l414 1087h-148v99h377z" />
<glyph unicode="W" horiz-adv-x="1976" d="M1954 1393v-99h-105l-389 -1294h-82l-391 1153l-389 -1153h-80l-391 1294h-104v99h374v-99h-133l303 -1034l385 1133h80l385 -1139l303 1040h-145v99h379z" />
<glyph unicode="X" horiz-adv-x="1286" d="M852 0v98h139l-358 557l-357 -557h140v-98h-387v98h116l422 654l-350 542h-119v99h394v-99h-123l282 -438l279 438h-125v99h377v-99h-121l-344 -534l424 -662h116v-98h-405z" />
<glyph unicode="Y" horiz-adv-x="1257" d="M438 0v98h125v459l-428 737h-106v99h391v-99h-139l354 -614l356 614h-143v99h381v-99h-107l-424 -733v-463h125v-98h-385z" />
<glyph unicode="Z" horiz-adv-x="1187" d="M139 1090v303h948v-72l-845 -1210h753v192h109v-303h-1038v74l843 1208h-661v-192h-109z" />
<glyph unicode="[" horiz-adv-x="579" d="M168 -262v1716h344v-102h-213v-1512h213v-102h-344z" />
<glyph unicode="\" horiz-adv-x="819" d="M659 -262l-614 1716h129l614 -1716h-129z" />
<glyph unicode="]" horiz-adv-x="579" d="M68 -262v102h213v1512h-213v102h344v-1716h-344z" />
<glyph unicode="^" horiz-adv-x="761" d="M381 1233l-217 -342h-127l340 530h10l338 -530h-127z" />
<glyph unicode="_" horiz-adv-x="520" d="M-4 -262v112h528v-112h-528z" />
<glyph unicode="`" horiz-adv-x="1024" d="M467 811l-156 289h142l114 -289h-100z" />
<glyph unicode="a" horiz-adv-x="778" d="M524 399v13q0 176 -166 176q-117 0 -184 -96l-80 65q102 133 277 133q131 0 203.5 -69.5t72.5 -206.5v-318h103v-96h-226v86q-70 -102 -217 -102q-109 0 -180.5 55t-71.5 162q0 98 75 148t192 50h202zM524 315h-192q-70 0 -113 -28.5t-43 -85.5q0 -119 160 -119 q78 0 133 40t55 109v84z" />
<glyph unicode="b" horiz-adv-x="897" d="M33 1354v100h227v-899q72 135 246 135q141 0 236.5 -101.5t95.5 -252.5q0 -150 -95.5 -251t-236.5 -101q-172 0 -246 133v-117h-227v96h104v1258h-104zM481.5 86q102.5 0 166 69.5t63.5 180.5q0 113 -63.5 182.5t-166 69.5t-165 -69.5t-62.5 -182.5q0 -111 62.5 -180.5 t165 -69.5z" />
<glyph unicode="c" horiz-adv-x="751" d="M399 690q123 0 181 -80v64h98v-217h-94q-31 133 -172 133q-104 0 -168 -72t-64 -182q0 -104 64.5 -176t167.5 -72q125 0 196 86l80 -72q-100 -119 -280 -118q-152 0 -251.5 100t-99.5 251.5t99.5 253t242.5 101.5z" />
<glyph unicode="d" horiz-adv-x="892" d="M639 0v123q-74 -139 -248 -139q-145 0 -238.5 100t-93.5 251.5t96.5 253t239.5 101.5q170 0 244 -139v803h-107v100h228v-1358h100v-96h-221zM415.5 588q-102.5 0 -166 -69.5t-63.5 -182.5q0 -111 63.5 -180.5t166 -69.5t165 69.5t62.5 180.5q0 113 -62.5 182.5 t-165 69.5z" />
<glyph unicode="e" horiz-adv-x="808" d="M186 301q4 -98 72 -157.5t170 -59.5q129 0 211 90l74 -72q-98 -119 -295 -118q-158 0 -258.5 100t-100.5 251.5t101.5 253t249.5 101.5q158 0 252 -109q90 -105 90 -266v-14h-566zM186 389h439q-12 88 -66.5 144.5t-148.5 56.5q-88 0 -150 -55.5t-74 -145.5z" />
<glyph unicode="f" horiz-adv-x="460" d="M37 0v96h88v477h-88v101h88v577q0 106 54 162.5t145 56.5q102 0 157 -71l-69 -72q-33 43 -82 43q-82 0 -82 -110v-586h164v-101h-164v-477h129v-96h-340z" />
<glyph unicode="g" horiz-adv-x="747" d="M465 674h244v-92h-136q66 -61 66 -156q0 -113 -80 -187.5t-197 -74.5q-76 0 -133 31q-51 -16 -51 -60q0 -41 39 -58.5t168 -21.5q346 -16 346 -243q0 -121 -99.5 -195t-264.5 -74q-160 0 -257.5 66.5t-97.5 179.5q0 154 174 201q-111 27 -110 131q0 88 94 119 q-82 78 -82 186q0 115 79 189.5t195 74.5q54 0 103 -16zM362 256q74 0 119 47t45 123q0 78 -45 125t-119 47q-72 0 -116.5 -48t-44.5 -124t44.5 -123t116.5 -47zM371 -358q111 0 176 41t65 118q0 74 -60 109t-200 35q-227 0 -227 -150q0 -76 66.5 -114.5t179.5 -38.5z" />
<glyph unicode="h" horiz-adv-x="884" d="M522 0v96h105v312q0 178 -166 178q-90 0 -145.5 -56.5t-55.5 -150.5v-283h105v-96h-332v96h104v1258h-104v100h227v-895q74 131 234 131q115 0 185.5 -71.5t70.5 -204.5v-318h104v-96h-332z" />
<glyph unicode="i" horiz-adv-x="395" d="M33 573v101h227v-578h105v-96h-332v96h104v477h-104zM199 860q-33 0 -58.5 24.5t-25.5 59.5q0 37 25.5 61.5t58.5 24.5q35 0 60.5 -24.5t25.5 -61.5q0 -35 -25.5 -59.5t-60.5 -24.5z" />
<glyph unicode="j" horiz-adv-x="372" d="M35 573v101h225v-922q0 -98 -48 -151.5t-138 -53.5q-82 0 -135 54l61 77q29 -29 63 -28q76 0 76 94v829h-104zM199 860q-33 0 -58.5 24.5t-25.5 59.5q0 37 25.5 61.5t58.5 24.5q35 0 60.5 -24.5t25.5 -61.5q0 -35 -25.5 -59.5t-60.5 -24.5z" />
<glyph unicode="k" horiz-adv-x="784" d="M455 0v96h80l-168 209l-107 -102v-107h84v-96h-311v96h104v1258h-104v100h227v-1128l266 252h-100v96h330v-101h-97l-208 -194l227 -283h84v-96h-307z" />
<glyph unicode="l" horiz-adv-x="397" d="M33 1354v100h227v-1358h105v-96h-332v96h104v1258h-104z" />
<glyph unicode="m" horiz-adv-x="1282" d="M479 0v96h101v324q0 166 -146 166q-82 0 -128 -51.5t-46 -141.5v-297h100v-96h-327v96h104v477h-104v101h225v-103q57 119 207 119q145 0 207 -131q74 131 229 131q111 0 178.5 -69.5t67.5 -190.5v-334h104v-96h-327v96h100v326q0 80 -38 122t-107 42q-82 0 -129.5 -50.5 t-47.5 -138.5v-301h101v-96h-324z" />
<glyph unicode="n" horiz-adv-x="884" d="M522 0v96h105v312q0 178 -164 178q-92 0 -147.5 -56.5t-55.5 -150.5v-283h105v-96h-332v96h104v477h-104v101h227v-115q66 131 234 131q115 0 185.5 -71.5t70.5 -204.5v-318h104v-96h-332z" />
<glyph unicode="o" horiz-adv-x="831" d="M416 -16q-150 0 -253.5 101t-103.5 251q0 152 103.5 253t253.5 101q152 0 255 -101.5t103 -252.5q0 -150 -103 -251t-255 -101zM415.5 84q100.5 0 166 71.5t65.5 180.5q0 111 -65.5 182.5t-166 71.5t-165 -72t-64.5 -182.5t64.5 -181t165 -70.5z" />
<glyph unicode="p" horiz-adv-x="897" d="M33 573v101h229v-119q76 135 246 135q141 0 236.5 -101.5t95.5 -252.5q0 -150 -95.5 -251t-236.5 -101q-172 0 -246 131v-455h113v-94h-342v94h106v913h-106zM483.5 86q102.5 0 166 69.5t63.5 180.5q0 113 -63.5 182.5t-166 69.5t-165 -69.5t-62.5 -182.5 q0 -111 62.5 -180.5t165 -69.5z" />
<glyph unicode="q" horiz-adv-x="897" d="M854 -340v-94h-340v94h123v463q-74 -139 -246 -139q-141 0 -237.5 100t-96.5 251.5t96.5 253t239.5 101.5q170 0 244 -139v123h227v-101h-106v-913h96zM413.5 588q-102.5 0 -166 -69.5t-63.5 -182.5q0 -111 63.5 -180.5t166 -69.5t166 69.5t63.5 180.5q0 113 -63.5 182.5 t-166 69.5z" />
<glyph unicode="r" horiz-adv-x="579" d="M33 573v101h227v-125q57 141 199 141q59 0 104 -26l-41 -103q-31 23 -90 23q-72 0 -122 -57.5t-50 -153.5v-277h111v-96h-338v96h104v477h-104z" />
<glyph unicode="s" horiz-adv-x="647" d="M547 477h-88q-25 119 -148 119q-53 0 -83.5 -22.5t-30.5 -61.5q0 -41 34.5 -63.5t122.5 -45.5q117 -33 174.5 -82t57.5 -133q0 -94 -67.5 -149t-174.5 -55q-150 0 -205 86v-70h-90v221h90q27 -143 187 -143q66 0 102.5 25.5t36.5 72.5q0 45 -37 69.5t-129 51.5 q-111 31 -164 78t-53 127q0 84 61.5 136t151.5 52q115 0 158 -74v58h94v-197z" />
<glyph unicode="t" horiz-adv-x="479" d="M119 573h-90v101h90v260h123v-260h168v-101h-168v-403q0 -86 71 -86q45 0 78 33l51 -84q-55 -49 -143 -49q-180 0 -180 188v401z" />
<glyph unicode="u" horiz-adv-x="870" d="M504 573v101h229v-578h105v-96h-228v121q-27 -63 -91 -100t-140 -37q-121 0 -189.5 69.5t-68.5 206.5v313h-103v101h226v-404q0 -182 164 -182q92 0 147 56.5t55 154.5v274h-106z" />
<glyph unicode="v" horiz-adv-x="780" d="M481 573v101h287v-101h-78l-268 -575h-55l-279 575h-76v101h297v-101h-94l184 -397l179 397h-97z" />
<glyph unicode="w" horiz-adv-x="1134" d="M1116 674v-101h-74l-215 -573h-59l-199 471l-196 -471h-66l-215 573h-74v101h299v-101h-98l133 -374l197 475h49l201 -473l129 372h-88v101h276z" />
<glyph unicode="x" horiz-adv-x="792" d="M731 674v-101h-88l-166 -219l199 -258h90v-96h-320v90h91l-150 199l-149 -199h92v-90h-301v96h90l200 264l-165 213h-82v101h297v-94h-82l123 -158l118 158h-79v94h282z" />
<glyph unicode="y" horiz-adv-x="776" d="M12 573v101h299v-101h-92l184 -397l168 397h-96v101h289v-101h-78l-397 -907h104v-100h-319v100h100l168 383l-252 524h-78z" />
<glyph unicode="z" horiz-adv-x="681" d="M74 461v213h549v-58l-414 -524h323v135h97v-227h-582v55l416 525h-293v-119h-96z" />
<glyph unicode="{" horiz-adv-x="659" d="M522 -262q-262 0 -262 289v370q0 78 -28.5 109t-88.5 31h-94v104h94q59 0 88 30.5t29 108.5v385q0 289 262 289h74v-102h-70q-68 0 -101.5 -39t-33.5 -137v-404q0 -88 -33.5 -129t-99.5 -53q133 -25 133 -182v-392q0 -98 34 -137t101 -39h70v-102h-74z" />
<glyph unicode="|" horiz-adv-x="485" d="M178 -262v1716h129v-1716h-129z" />
<glyph unicode="}" horiz-adv-x="659" d="M137 1454q262 0 262 -289v-385q0 -78 28 -108.5t87 -30.5h96v-104h-96q-59 0 -87 -31t-28 -109v-370q0 -289 -262 -289h-74v102h68q70 0 103.5 39t33.5 137v390q0 88 34 128.5t99 53.5q-133 25 -133 182v406q0 98 -33.5 137t-103.5 39h-68v102h74z" />
<glyph unicode="~" horiz-adv-x="700" d="M459 455q-49 0 -117 40t-94 40q-49 0 -68 -76l-102 14q14 84 58 131t108 47q49 0 115.5 -40t93.5 -40q47 0 69 76l101 -14q-14 -82 -57.5 -130t-106.5 -48z" />
<glyph unicode="&#xa1;" horiz-adv-x="440" d="M219 1212q-39 0 -67.5 28t-28.5 69t28.5 68.5t67.5 27.5t67.5 -27.5t28.5 -68.5t-28.5 -69t-67.5 -28zM150 0l14 1020h112l15 -1020h-141z" />
<glyph unicode="&#xa2;" horiz-adv-x="751" d="M354 -217v205q-129 18 -212 115.5t-83 232.5t84 233.5t211 116.5v199h101v-201q88 -10 133 -72v62h94v-217h-86q-31 117 -141 129v-498q98 12 159 84l82 -70q-92 -104 -241 -118v-201h-101zM182 336q0 -86 47 -152.5t125 -87.5v482q-78 -18 -125 -85t-47 -157z" />
<glyph unicode="&#xa3;" horiz-adv-x="948" d="M326 162q-55 51 -109 51q-35 0 -56.5 -18.5t-21.5 -51.5q0 -72 80 -71q43 0 71 26.5t36 63.5zM913 100q-102 -117 -254 -116q-125 0 -253 112q-63 -113 -189 -112q-80 0 -131 45t-51 114.5t49 112.5t125 43q66 0 125 -37q-12 78 -70 205h-168v102h113q-43 104 -43 195 q0 129 92 217t242 88q174 0 241 -123v107h107v-308h-103q-10 96 -72.5 152.5t-158.5 56.5q-98 0 -156.5 -54t-58.5 -146q0 -84 43 -185h322v-102h-275q59 -143 60 -252q0 -6 -1.5 -13t-1.5 -9q4 -2 18.5 -13.5t19.5 -14.5l20 -12l20 -14q6 -4 18.5 -11t20.5 -10t21.5 -7.5 t23.5 -6.5t22.5 -4t24.5 -2q98 0 176 84z" />
<glyph unicode="&#xa5;" horiz-adv-x="1028" d="M31 1053h334v-101h-101l256 -448l254 448h-102v101h323v-101h-92l-182 -311h197v-92h-250l-80 -137h330v-90h-338v-224h122v-98h-383v98h130v224h-345v90h336l-80 137h-256v92h203l-182 311h-94v101z" />
<glyph unicode="&#xa7;" horiz-adv-x="997" d="M205 -317v-113h-107v309h90q25 -106 109 -162.5t201 -56.5q96 0 151.5 46t55.5 120q0 63 -42 105t-139 79l-225 86q-125 47 -185.5 117t-60.5 174q0 150 152 229q-45 72 -45 158q0 131 90 213t233 82q92 0 157 -34t93 -91v105h109v-299h-94q-16 96 -82 155.5t-174 59.5 q-94 0 -149.5 -51.5t-55.5 -129.5q0 -76 39 -118.5t129 -77.5l239 -90q250 -96 250 -289q0 -158 -162 -221q55 -72 56 -160q0 -121 -88 -199t-242 -78q-205 1 -303 132zM713 49q106 41 106 150q0 63 -37 104t-127 76l-239 86q-100 41 -152 88q-86 -49 -86 -154 q0 -70 36 -110.5t120 -73.5l229 -86q101 -41 150 -80z" />
<glyph unicode="&#xa8;" horiz-adv-x="1024" d="M645 864q-31 0 -55.5 22.5t-24.5 55.5q0 35 23.5 57.5t56.5 22.5t56.5 -22.5t23.5 -57.5q0 -33 -24.5 -55.5t-55.5 -22.5zM379 864q-31 0 -55.5 22.5t-24.5 55.5q0 35 23.5 57.5t56.5 22.5t56.5 -22.5t23.5 -57.5q0 -33 -24.5 -55.5t-55.5 -22.5z" />
<glyph unicode="&#xa9;" horiz-adv-x="1241" d="M620.5 -14q-225.5 0 -384 154.5t-158.5 386t158.5 387t384 155.5t384 -155.5t158.5 -387t-158.5 -386t-384 -154.5zM620.5 61q194.5 0 327.5 133.5t133 331.5q0 201 -133 333t-327.5 132t-327.5 -132t-133 -333q0 -199 133 -332t327.5 -133zM803 379l80 -72 q-98 -115 -265 -114q-139 0 -234 94t-95 243q0 141 95 235.5t226 94.5q61 0 109.5 -21.5t66.5 -52.5v58h91v-219h-86q-23 135 -168 135q-92 0 -150.5 -63.5t-58.5 -168.5q0 -100 57 -165.5t150 -65.5q110 0 182 82z" />
<glyph unicode="&#xaa;" horiz-adv-x="708" d="M485 807v12q0 84 -37.5 119t-113.5 35q-100 0 -168 -86l-70 59q90 123 248 123q119 0 187.5 -62.5t68.5 -185.5v-284h90v-91h-207v78q-63 -92 -194 -92q-100 0 -165 50t-65 145q0 88 69 134t173 46h184zM485 727h-174q-137 0 -137 -100q0 -102 141 -103q70 0 120 36 t50 95v72z" />
<glyph unicode="&#xab;" horiz-adv-x="690" d="M190 336l162 -270h-127l-159 266v8l159 262h127zM457 336l161 -270h-124l-162 266v8l162 262h124z" />
<glyph unicode="&#xad;" horiz-adv-x="481" d="M74 336v106h332v-106h-332z" />
<glyph unicode="&#xae;" horiz-adv-x="778" d="M387 768q-135 0 -229.5 91t-94.5 228.5t94.5 229.5t229.5 92q137 0 232.5 -92t95.5 -229.5t-95.5 -228.5t-232.5 -91zM387 823q117 0 192.5 74t75.5 190q0 119 -75.5 194t-192.5 75t-190.5 -75t-73.5 -194q0 -117 74.5 -190.5t189.5 -73.5zM264 965v256h-35v55h164 q66 0 102.5 -32t36.5 -83q0 -74 -71 -104l55 -92h37v-56h-84l-78 138h-53v-82h29v-56h-138v56h35zM338 1098h49q68 0 68 63q0 59 -68 60h-49v-123z" />
<glyph unicode="&#xaf;" horiz-adv-x="1024" d="M326 893v98h372v-98h-372z" />
<glyph unicode="&#xb0;" horiz-adv-x="616" d="M309 637q-90 0 -155.5 63.5t-65.5 151.5q0 90 64.5 151.5t156.5 61.5t155.5 -61.5t63.5 -151.5q0 -88 -64.5 -151.5t-154.5 -63.5zM309.5 721q55.5 0 90 38t34.5 93t-34.5 93t-90 38t-91.5 -38t-36 -93t36 -93t91.5 -38z" />
<glyph unicode="&#xb2;" horiz-adv-x="534" d="M35 815v43l190 182l74 72q20 20 43 55t23 66q0 43 -28 67.5t-73 24.5q-88 0 -121 -100l-90 26q47 156 213 156q92 0 146.5 -46t54.5 -126q0 -43 -32 -93t-54.5 -72.5t-85.5 -80.5l-107 -96h224v78h77v-156h-454z" />
<glyph unicode="&#xb3;" horiz-adv-x="538" d="M41 934l82 43q49 -96 143 -96q55 0 91 33.5t36 91.5q0 59 -37 90.5t-96 31.5q-45 0 -82 -18l-10 20l168 185h-195v-80h-78v158h404v-41l-148 -164q76 -6 125.5 -55.5t49.5 -126.5q0 -92 -59.5 -149.5t-164.5 -57.5q-168 0 -229 135z" />
<glyph unicode="&#xb4;" horiz-adv-x="1024" d="M457 811l114 289h142l-156 -289h-100z" />
<glyph unicode="&#xb6;" horiz-adv-x="1011" d="M471 750h-43q-154 0 -248 93t-94 228q0 137 94 229.5t248 92.5h438v-1393h-121v1284h-153v-1284h-121v750z" />
<glyph unicode="&#xb7;" horiz-adv-x="356" d="M178 346q-39 0 -67.5 27.5t-28.5 68.5t28.5 69t67.5 28t67.5 -28t28.5 -69t-28.5 -68.5t-67.5 -27.5z" />
<glyph unicode="&#xb8;" horiz-adv-x="1024" d="M518 -393q-123 0 -168 94l72 43q25 -55 88 -55q70 0 70 67q0 74 -84 74h-35v170h80v-102q57 -6 94 -45t37 -103q0 -66 -46.5 -104.5t-107.5 -38.5z" />
<glyph unicode="&#xb9;" horiz-adv-x="489" d="M86 815v80h113v414h-121v84h219v-498h109v-80h-320z" />
<glyph unicode="&#xba;" horiz-adv-x="761" d="M381 432q-135 0 -228.5 91t-93.5 226.5t93.5 227.5t228.5 92t229.5 -92t94.5 -227.5t-94.5 -226.5t-229.5 -91zM381 522q92 0 149.5 64.5t57.5 163t-57.5 162t-149.5 63.5t-148.5 -63.5t-56.5 -162t56.5 -163t148.5 -64.5z" />
<glyph unicode="&#xbb;" horiz-adv-x="690" d="M338 66l162 266l-162 270h127l160 -266v-8l-160 -262h-127zM72 66l161 266l-161 270h125l161 -266v-8l-161 -262h-125z" />
<glyph unicode="&#xbc;" horiz-adv-x="716" d="M340 76h76v49h-318v53l353 414h61v-389h82v-78h-82v-49h72v-76h-244v76zM63 655v84h586v-84h-586zM418 201v243l-197 -243h197zM201 815v80h112v414h-120v84h219v-498h108v-80h-319z" />
<glyph unicode="&#xbd;" horiz-adv-x="696" d="M66 655v84h565v-84h-565zM119 2v43l190 182l74 72q20 20 43 55t23 66q0 43 -28 67.5t-73 24.5q-88 0 -121 -100l-90 26q47 156 213 156q92 0 146.5 -46t54.5 -126q0 -43 -32 -93t-54.5 -73t-85.5 -80l-107 -96h224v78h77v-156h-454zM182 815v80h113v414h-121v84h219v-498 h109v-80h-320z" />
<glyph unicode="&#xbe;" horiz-adv-x="716" d="M340 76h76v49h-318v53l353 414h61v-389h82v-78h-82v-49h72v-76h-244v76zM57 655v84h605v-84h-605zM418 201v243l-197 -243h197zM123 934l82 43q49 -96 143 -96q55 0 91 33.5t36 91.5q0 59 -37 90.5t-96 31.5q-45 0 -82 -18l-10 20l168 185h-195v-80h-78v158h404v-41 l-148 -164q76 -6 125 -55.5t49 -126.5q0 -92 -59 -149.5t-164 -57.5q-168 0 -229 135z" />
<glyph unicode="&#xbf;" horiz-adv-x="909" d="M567 1026v-391h-61q-133 0 -208 -79t-75 -196q0 -121 69.5 -193.5t186.5 -72.5q186 0 281 182l98 -57q-53 -104 -149.5 -169.5t-227.5 -65.5q-178 0 -285.5 106.5t-107.5 271.5q0 156 96.5 260.5t259.5 118.5v285h123zM506 1405q39 0 67.5 -27.5t28.5 -68.5t-28.5 -69 t-67.5 -28t-67.5 28t-28.5 69t28.5 68.5t67.5 27.5z" />
<glyph unicode="&#xc0;" d="M1333 98v-98h-381v98h133l-100 277h-625l-102 -277h135v-98h-370v98h106l436 1196h-100v99h426v-99h-103l437 -1196h108zM674 1264l-277 -777h551zM623 1485l-156 289h141l115 -289h-100z" />
<glyph unicode="&#xc1;" d="M1333 98v-98h-381v98h133l-100 277h-625l-102 -277h135v-98h-370v98h106l436 1196h-100v99h426v-99h-103l437 -1196h108zM674 1264l-277 -777h551zM616 1485l115 289h141l-155 -289h-101z" />
<glyph unicode="&#xc2;" d="M1333 98v-98h-381v98h133l-100 277h-625l-102 -277h135v-98h-370v98h106l436 1196h-100v99h426v-99h-103l437 -1196h108zM674 1264l-277 -777h551zM449 1491l223 266h6l223 -266h-102l-123 119l-125 -119h-102z" />
<glyph unicode="&#xc3;" d="M1333 98v-98h-381v98h133l-100 277h-625l-102 -277h135v-98h-370v98h106l436 1196h-100v99h426v-99h-103l437 -1196h108zM674 1264l-277 -777h551zM766 1489q-45 0 -100.5 37t-77.5 37q-39 0 -58 -70l-90 12q27 164 142 164q45 0 100 -37t78 -37q39 0 57 70l90 -12 q-26 -164 -141 -164z" />
<glyph unicode="&#xc4;" d="M1333 98v-98h-381v98h133l-100 277h-625l-102 -277h135v-98h-370v98h106l436 1196h-100v99h426v-99h-103l437 -1196h108zM674 1264l-277 -777h551zM807 1503q-31 0 -55.5 22.5t-24.5 55.5q0 35 23.5 57.5t56.5 22.5t56.5 -22.5t23.5 -57.5q0 -33 -24.5 -55.5t-55.5 -22.5 zM540.5 1503q-30.5 0 -55 22.5t-24.5 55.5q0 35 23.5 57.5t56 22.5t56.5 -22.5t24 -57.5q0 -33 -25 -55.5t-55.5 -22.5z" />
<glyph unicode="&#xc5;" d="M1333 98v-98h-381v98h133l-100 277h-625l-102 -277h135v-98h-370v98h106l436 1196h-100v99h426v-99h-103l437 -1196h108zM674 1264l-277 -777h551zM673.5 1460q-69.5 0 -118.5 48t-49 114t49 115t118.5 49t119 -49t49.5 -115t-49.5 -114t-119 -48zM674 1536 q37 0 59.5 23.5t22.5 62.5t-23.5 62.5t-58.5 23.5t-58.5 -23.5t-23.5 -62.5t22.5 -62.5t59.5 -23.5z" />
<glyph unicode="&#xc6;" horiz-adv-x="1925" d="M1702 1090v188h-600v-524h602v-107h-602v-532h629v188h108v-303h-995v98h125v258h-545l-164 -258h150v-98h-390v98h111l748 1196h-131v99h1062v-303h-108zM487 461h482v772z" />
<glyph unicode="&#xc7;" horiz-adv-x="1445" d="M770 -393q-123 0 -168 94l72 43q25 -55 88 -55q70 0 69 67q0 74 -83 74h-35v158q-274 27 -453.5 224.5t-179.5 483.5q2 309 203.5 512t496.5 203q301 0 434 -190v172h111v-389h-100q-35 141 -154 214.5t-283 73.5q-248 0 -407.5 -170t-159.5 -426q0 -258 163 -427 t409 -169q301 0 475 236l102 -74q-207 -276 -577 -278v-86q57 -6 94 -45t37 -103q0 -66 -46.5 -104.5t-107.5 -38.5z" />
<glyph unicode="&#xc8;" horiz-adv-x="1150" d="M926 1090v192h-598v-528h559v-107h-559v-536h626v192h109v-303h-995v98h125v1196h-125v99h966v-303h-108zM537 1485l-156 289h141l115 -289h-100z" />
<glyph unicode="&#xc9;" horiz-adv-x="1150" d="M520 1485l115 289h141l-155 -289h-101zM926 1090v192h-598v-528h559v-107h-559v-536h626v192h109v-303h-995v98h125v1196h-125v99h966v-303h-108z" />
<glyph unicode="&#xca;" horiz-adv-x="1150" d="M360 1491l224 266h6l223 -266h-102l-123 119l-125 -119h-103zM926 1090v192h-598v-528h559v-107h-559v-536h626v192h109v-303h-995v98h125v1196h-125v99h966v-303h-108z" />
<glyph unicode="&#xcb;" horiz-adv-x="1150" d="M721 1503q-31 0 -55.5 22.5t-24.5 55.5q0 35 23.5 57.5t56.5 22.5t56.5 -22.5t23.5 -57.5q0 -33 -24.5 -55.5t-55.5 -22.5zM454.5 1503q-30.5 0 -55 22.5t-24.5 55.5q0 35 23.5 57.5t56 22.5t56.5 -22.5t24 -57.5q0 -33 -25 -55.5t-55.5 -22.5zM926 1090v192h-598v-528 h559v-107h-559v-536h626v192h109v-303h-995v98h125v1196h-125v99h966v-303h-108z" />
<glyph unicode="&#xcc;" horiz-adv-x="522" d="M70 1294v99h383v-99h-125v-1196h125v-98h-383v98h125v1196h-125zM211 1485l-156 289h142l114 -289h-100z" />
<glyph unicode="&#xcd;" horiz-adv-x="522" d="M70 1294v99h383v-99h-125v-1196h125v-98h-383v98h125v1196h-125zM209 1485l115 289h141l-156 -289h-100z" />
<glyph unicode="&#xce;" horiz-adv-x="522" d="M70 1294v99h383v-99h-125v-1196h125v-98h-383v98h125v1196h-125zM37 1491l223 266h6l223 -266h-102l-123 119l-125 -119h-102z" />
<glyph unicode="&#xcf;" horiz-adv-x="522" d="M70 1294v99h383v-99h-125v-1196h125v-98h-383v98h125v1196h-125zM395.5 1503q-30.5 0 -55.5 22.5t-25 55.5q0 35 23.5 57.5t56.5 22.5t56.5 -22.5t23.5 -57.5q0 -33 -24.5 -55.5t-55 -22.5zM129 1503q-31 0 -55.5 22.5t-24.5 55.5q0 35 23.5 57.5t56.5 22.5t56.5 -22.5 t23.5 -57.5q0 -33 -24.5 -55.5t-55.5 -22.5z" />
<glyph unicode="&#xd0;" horiz-adv-x="1351" d="M45 645v111h145v538h-124v99h473q340 0 537.5 -191.5t197.5 -505t-196.5 -505t-538.5 -191.5h-473v98h124v547h-145zM326 111h200q299 0 454 159.5t155 426t-155 426t-454 159.5h-200v-526h362v-111h-362v-534z" />
<glyph unicode="&#xd1;" horiz-adv-x="1454" d="M1393 1393v-99h-125v-1294h-88l-865 1200v-1102h138v-98h-385v98h125v1196h-125v99h260l817 -1137v1038h-139v99h387zM821 1489q-47 0 -102 37t-76 37q-39 0 -57 -70l-90 12q27 164 141 164q47 0 102.5 -37t75.5 -37q39 0 57 70l91 -12q-27 -164 -142 -164z" />
<glyph unicode="&#xd2;" horiz-adv-x="1589" d="M795 -16q-299 0 -507 203.5t-208 508.5t208 509t507 204q301 0 508.5 -204t207.5 -509t-207.5 -508.5t-508.5 -203.5zM794.5 100q247.5 0 411.5 170t164 426t-164 426t-411.5 170t-411.5 -170t-164 -426t164 -426t411.5 -170zM741 1485l-155 289h141l115 -289h-101z" />
<glyph unicode="&#xd3;" horiz-adv-x="1589" d="M737 1485l115 289h141l-155 -289h-101zM795 -16q-299 0 -507 203.5t-208 508.5t208 509t507 204q301 0 508.5 -204t207.5 -509t-207.5 -508.5t-508.5 -203.5zM794.5 100q247.5 0 411.5 170t164 426t-164 426t-411.5 170t-411.5 -170t-164 -426t164 -426t411.5 -170z" />
<glyph unicode="&#xd4;" horiz-adv-x="1589" d="M569 1491l224 266h6l223 -266h-102l-123 119l-125 -119h-103zM795 -16q-299 0 -507 203.5t-208 508.5t208 509t507 204q301 0 508.5 -204t207.5 -509t-207.5 -508.5t-508.5 -203.5zM794.5 100q247.5 0 411.5 170t164 426t-164 426t-411.5 170t-411.5 -170t-164 -426 t164 -426t411.5 -170z" />
<glyph unicode="&#xd5;" horiz-adv-x="1589" d="M795 -16q-299 0 -507 203.5t-208 508.5t208 509t507 204q301 0 508.5 -204t207.5 -509t-207.5 -508.5t-508.5 -203.5zM794.5 100q247.5 0 411.5 170t164 426t-164 426t-411.5 170t-411.5 -170t-164 -426t164 -426t411.5 -170zM887 1489q-47 0 -102.5 37t-75.5 37 q-39 0 -58 -70l-90 12q27 164 141 164q47 0 102.5 -37t76.5 -37q39 0 57 70l90 -12q-26 -164 -141 -164z" />
<glyph unicode="&#xd6;" horiz-adv-x="1589" d="M927.5 1503q-30.5 0 -55 22.5t-24.5 55.5q0 35 23.5 57.5t56.5 22.5t56.5 -22.5t23.5 -57.5q0 -33 -25 -55.5t-55.5 -22.5zM661.5 1503q-30.5 0 -55 22.5t-24.5 55.5q0 35 23.5 57.5t56 22.5t56 -22.5t23.5 -57.5q0 -33 -24.5 -55.5t-55 -22.5zM795 -16 q-299 0 -507 203.5t-208 508.5t208 509t507 204q301 0 508.5 -204t207.5 -509t-207.5 -508.5t-508.5 -203.5zM794.5 100q247.5 0 411.5 170t164 426t-164 426t-411.5 170t-411.5 -170t-164 -426t164 -426t411.5 -170z" />
<glyph unicode="&#xd7;" horiz-adv-x="624" d="M383 496l172 -172l-72 -72l-172 172l-170 -172l-73 72l170 172l-170 170l73 71l170 -170l170 170l74 -71z" />
<glyph unicode="&#xd8;" horiz-adv-x="1599" d="M801 -16q-272 0 -471 170l-172 -172l-74 71l172 172q-172 199 -172 471q0 305 208 509t509 204q270 0 469 -170l170 170l76 -72l-173 -172q172 -193 173 -469q0 -305 -208 -508.5t-507 -203.5zM801 100q250 0 413.5 170t163.5 426q0 223 -123 381l-841 -839 q156 -138 387 -138zM223 696q0 -229 123 -383l838 842q-154 137 -383 137q-250 0 -414 -170t-164 -426z" />
<glyph unicode="&#xd9;" horiz-adv-x="1357" d="M1296 1393v-99h-125v-821q0 -236 -137 -362.5t-356 -126.5t-355.5 127t-136.5 362v821h-125v99h394v-99h-133v-813q0 -186 95 -284.5t261 -98.5q168 0 263 98.5t95 284.5v813h-133v99h393zM631 1485l-156 289h141l115 -289h-100z" />
<glyph unicode="&#xda;" horiz-adv-x="1357" d="M621 1485l114 289h142l-156 -289h-100zM1296 1393v-99h-125v-821q0 -236 -137 -362.5t-356 -126.5t-355.5 127t-136.5 362v821h-125v99h394v-99h-133v-813q0 -186 95 -284.5t261 -98.5q168 0 263 98.5t95 284.5v813h-133v99h393z" />
<glyph unicode="&#xdb;" horiz-adv-x="1357" d="M453 1491l223 266h6l223 -266h-102l-123 119l-125 -119h-102zM1296 1393v-99h-125v-821q0 -236 -137 -362.5t-356 -126.5t-355.5 127t-136.5 362v821h-125v99h394v-99h-133v-813q0 -186 95 -284.5t261 -98.5q168 0 263 98.5t95 284.5v813h-133v99h393z" />
<glyph unicode="&#xdc;" horiz-adv-x="1357" d="M811 1503q-31 0 -55.5 22.5t-24.5 55.5q0 35 23.5 57.5t56.5 22.5t56.5 -22.5t23.5 -57.5q0 -33 -24.5 -55.5t-55.5 -22.5zM544.5 1503q-30.5 0 -55 22.5t-24.5 55.5q0 35 23.5 57.5t56.5 22.5t56.5 -22.5t23.5 -57.5q0 -33 -25 -55.5t-55.5 -22.5zM1296 1393v-99h-125 v-821q0 -236 -137 -362.5t-356 -126.5t-355.5 127t-136.5 362v821h-125v99h394v-99h-133v-813q0 -186 95 -284.5t261 -98.5q168 0 263 98.5t95 284.5v813h-133v99h393z" />
<glyph unicode="&#xdd;" horiz-adv-x="1257" d="M438 0v98h125v459l-428 737h-106v99h391v-99h-139l354 -614l356 614h-143v99h381v-99h-107l-424 -733v-463h125v-98h-385zM569 1485l115 289h141l-155 -289h-101z" />
<glyph unicode="&#xde;" horiz-adv-x="1144" d="M68 1294v99h385v-99h-125v-168h272q219 0 343 -116.5t124 -303t-123 -302t-344 -115.5h-272v-191h143v-98h-403v98h125v1196h-125zM328 399h260q168 0 254 81t86 226.5t-87 228.5t-253 83h-260v-619z" />
<glyph unicode="&#xdf;" horiz-adv-x="884" d="M39 0v96h88v477h-88v101h88v508q0 141 86 214.5t205 73.5q129 0 204.5 -65.5t75.5 -179.5q0 -61 -28 -138l-156 -473q-16 -49 -16 -79q0 -82 133 -125q96 -33 148 -83.5t52 -138.5q0 -92 -61 -148t-178 -56q-174 0 -252 133l74 63q61 -104 178 -104q61 0 94 26.5t33 71.5 q0 53 -30 76.5t-116 56.5q-193 70 -192 205q0 49 27 129l153 477q18 53 19 99q0 72 -44 114.5t-114 42.5q-78 0 -125 -49t-47 -145v-1180h-211z" />
<glyph unicode="&#xe0;" horiz-adv-x="778" d="M319 811l-155 289h141l115 -289h-101zM524 399v13q0 176 -166 176q-117 0 -184 -96l-80 65q102 133 277 133q131 0 203.5 -69.5t72.5 -206.5v-318h103v-96h-226v86q-70 -102 -217 -102q-109 0 -180.5 55t-71.5 162q0 98 75 148t192 50h202zM524 315h-192 q-70 0 -113 -28.5t-43 -85.5q0 -119 160 -119q78 0 133 40t55 109v84z" />
<glyph unicode="&#xe1;" horiz-adv-x="778" d="M309 811l115 289h141l-155 -289h-101zM524 399v13q0 176 -166 176q-117 0 -184 -96l-80 65q102 133 277 133q131 0 203.5 -69.5t72.5 -206.5v-318h103v-96h-226v86q-70 -102 -217 -102q-109 0 -180.5 55t-71.5 162q0 98 75 148t192 50h202zM524 315h-192 q-70 0 -113 -28.5t-43 -85.5q0 -119 160 -119q78 0 133 40t55 109v84z" />
<glyph unicode="&#xe2;" horiz-adv-x="778" d="M145 834l224 266h6l223 -266h-102l-123 118l-125 -118h-103zM524 399v13q0 176 -166 176q-117 0 -184 -96l-80 65q102 133 277 133q131 0 203.5 -69.5t72.5 -206.5v-318h103v-96h-226v86q-70 -102 -217 -102q-109 0 -180.5 55t-71.5 162q0 98 75 148t192 50h202zM524 315 h-192q-70 0 -113 -28.5t-43 -85.5q0 -119 160 -119q78 0 133 40t55 109v84z" />
<glyph unicode="&#xe3;" horiz-adv-x="778" d="M463 850q-45 0 -100.5 37t-77.5 37q-39 0 -58 -70l-90 12q27 164 142 164q45 0 100 -37t78 -37q39 0 57 70l90 -12q-26 -164 -141 -164zM524 399v13q0 176 -166 176q-117 0 -184 -96l-80 65q102 133 277 133q131 0 203.5 -69.5t72.5 -206.5v-318h103v-96h-226v86 q-70 -102 -217 -102q-109 0 -180.5 55t-71.5 162q0 98 75 148t192 50h202zM524 315h-192q-70 0 -113 -28.5t-43 -85.5q0 -119 160 -119q78 0 133 40t55 109v84z" />
<glyph unicode="&#xe4;" horiz-adv-x="778" d="M504 864q-31 0 -55.5 22.5t-24.5 55.5q0 35 23.5 57.5t56.5 22.5t56.5 -22.5t23.5 -57.5q0 -33 -24.5 -55.5t-55.5 -22.5zM237.5 864q-30.5 0 -55 22.5t-24.5 55.5q0 35 23.5 57.5t56 22.5t56 -22.5t23.5 -57.5q0 -33 -24.5 -55.5t-55 -22.5zM524 399v13q0 176 -166 176 q-117 0 -184 -96l-80 65q102 133 277 133q131 0 203.5 -69.5t72.5 -206.5v-318h103v-96h-226v86q-70 -102 -217 -102q-109 0 -180.5 55t-71.5 162q0 98 75 148t192 50h202zM524 315h-192q-70 0 -113 -28.5t-43 -85.5q0 -119 160 -119q78 0 133 40t55 109v84z" />
<glyph unicode="&#xe5;" horiz-adv-x="778" d="M370.5 791q-69.5 0 -118.5 48t-49 113.5t49 114.5t118.5 49t119 -49t49.5 -114.5t-49.5 -113.5t-119 -48zM371 866q37 0 59.5 23.5t22.5 62.5t-23.5 62.5t-58.5 23.5t-58.5 -23.5t-23.5 -62.5t22.5 -62.5t59.5 -23.5zM524 399v13q0 176 -166 176q-117 0 -184 -96l-80 65 q102 133 277 133q131 0 203.5 -69.5t72.5 -206.5v-318h103v-96h-226v86q-70 -102 -217 -102q-109 0 -180.5 55t-71.5 162q0 98 75 148t192 50h202zM524 315h-192q-70 0 -113 -28.5t-43 -85.5q0 -119 160 -119q78 0 133 40t55 109v84z" />
<glyph unicode="&#xe6;" horiz-adv-x="1269" d="M524 309h-194q-154 0 -154 -110q0 -55 43 -86t117 -31q78 0 133 42t55 112v73zM1100 174l74 -72q-98 -119 -287 -118q-207 0 -297 166q-63 -166 -279 -166q-111 0 -183.5 55t-72.5 160q0 98 74 146t190 48h205v10q0 102 -43 143.5t-123 41.5q-117 0 -184 -96l-80 65 q102 133 277 133q182 0 231 -153q88 154 268 153q158 0 251 -107.5t91 -275.5h-565q2 -100 68.5 -161.5t173.5 -61.5q129 0 211 90zM649 395h436q-14 86 -67 140.5t-148 54.5q-86 0 -146.5 -54.5t-74.5 -140.5z" />
<glyph unicode="&#xe7;" horiz-adv-x="751" d="M395 -393q-123 0 -168 94l72 43q25 -55 88 -55q70 0 70 67q0 74 -84 74h-35v160q-125 23 -203 118t-78 228q0 152 99.5 253t242.5 101q123 0 181 -80v64h98v-217h-94q-31 133 -172 133q-104 0 -168 -72t-64 -182q0 -104 64.5 -176t167.5 -72q125 0 196 86l80 -72 q-96 -117 -270 -118v-86q57 -6 94 -45t37 -103q0 -66 -46.5 -104.5t-107.5 -38.5z" />
<glyph unicode="&#xe8;" horiz-adv-x="808" d="M186 301q4 -98 72 -157.5t170 -59.5q129 0 211 90l74 -72q-98 -119 -295 -118q-158 0 -258.5 100t-100.5 251.5t101.5 253t249.5 101.5q158 0 252 -109.5t90 -279.5h-566zM186 389h439q-12 88 -66.5 144.5t-148.5 56.5q-88 0 -150 -55.5t-74 -145.5zM354 811l-155 289 h141l115 -289h-101z" />
<glyph unicode="&#xe9;" horiz-adv-x="808" d="M348 811l115 289h141l-155 -289h-101zM186 301q4 -98 72 -157.5t170 -59.5q129 0 211 90l74 -72q-98 -119 -295 -118q-158 0 -258.5 100t-100.5 251.5t101.5 253t249.5 101.5q158 0 252 -109.5t90 -279.5h-566zM186 389h439q-12 88 -66.5 144.5t-148.5 56.5 q-88 0 -150 -55.5t-74 -145.5z" />
<glyph unicode="&#xea;" horiz-adv-x="808" d="M180 834l223 266h7l223 -266h-103l-122 118l-125 -118h-103zM186 301q4 -98 72 -157.5t170 -59.5q129 0 211 90l74 -72q-98 -119 -295 -118q-158 0 -258.5 100t-100.5 251.5t101.5 253t249.5 101.5q158 0 252 -109.5t90 -279.5h-566zM186 389h439q-12 88 -66.5 144.5 t-148.5 56.5q-88 0 -150 -55.5t-74 -145.5z" />
<glyph unicode="&#xeb;" horiz-adv-x="808" d="M538.5 864q-30.5 0 -55 22.5t-24.5 55.5q0 35 23.5 57.5t56 22.5t56 -22.5t23.5 -57.5q0 -33 -24.5 -55.5t-55 -22.5zM272.5 864q-30.5 0 -55 22.5t-24.5 55.5q0 35 23.5 57.5t56 22.5t56 -22.5t23.5 -57.5q0 -33 -24.5 -55.5t-55 -22.5zM186 301q4 -98 72 -157.5 t170 -59.5q129 0 211 90l74 -72q-98 -119 -295 -118q-158 0 -258.5 100t-100.5 251.5t101.5 253t249.5 101.5q158 0 252 -109.5t90 -279.5h-566zM186 389h439q-12 88 -66.5 144.5t-148.5 56.5q-88 0 -150 -55.5t-74 -145.5z" />
<glyph unicode="&#xec;" horiz-adv-x="395" d="M33 573v101h227v-578h105v-96h-332v96h104v477h-104zM147 811l-155 289h141l115 -289h-101z" />
<glyph unicode="&#xed;" horiz-adv-x="395" d="M141 811l115 289h141l-155 -289h-101zM33 573v101h227v-578h105v-96h-332v96h104v477h-104z" />
<glyph unicode="&#xee;" horiz-adv-x="395" d="M-27 834l224 266h6l223 -266h-102l-123 118l-125 -118h-103zM33 573v101h227v-578h105v-96h-332v96h104v477h-104z" />
<glyph unicode="&#xef;" horiz-adv-x="395" d="M331.5 864q-30.5 0 -55 22.5t-24.5 55.5q0 35 23.5 57.5t56.5 22.5t56.5 -22.5t23.5 -57.5q0 -33 -25 -55.5t-55.5 -22.5zM65.5 864q-30.5 0 -55 22.5t-24.5 55.5q0 35 23.5 57.5t56 22.5t56 -22.5t23.5 -57.5q0 -33 -24.5 -55.5t-55 -22.5zM33 573v101h227v-578h105v-96 h-332v96h104v477h-104z" />
<glyph unicode="&#xf0;" horiz-adv-x="847" d="M250 1069l119 98q-68 80 -187 185l62 82q127 -102 209 -195l114 96l60 -67l-115 -97q121 -152 192.5 -351t71.5 -419q0 -205 -99 -311t-257 -106q-152 0 -255.5 101t-103.5 251q0 152 99.5 253t240.5 101q172 0 242 -141q-37 326 -217 551l-117 -99zM419.5 590 q-100.5 0 -166 -72t-65.5 -182q0 -109 65.5 -180.5t166 -71.5t165 70.5t64.5 181t-64.5 182.5t-165 72z" />
<glyph unicode="&#xf1;" horiz-adv-x="884" d="M522 0v96h105v312q0 178 -164 178q-92 0 -147.5 -56.5t-55.5 -150.5v-283h105v-96h-332v96h104v477h-104v101h227v-115q66 131 234 131q115 0 185.5 -71.5t70.5 -204.5v-318h104v-96h-332zM518 850q-47 0 -102.5 37t-75.5 37q-39 0 -57 -70l-90 12q27 164 141 164 q47 0 102.5 -37t75.5 -37q39 0 57 70l90 -12q-26 -164 -141 -164z" />
<glyph unicode="&#xf2;" horiz-adv-x="831" d="M416 -16q-150 0 -253.5 101t-103.5 251q0 152 103.5 253t253.5 101q152 0 255 -101.5t103 -252.5q0 -150 -103 -251t-255 -101zM415.5 84q100.5 0 166 71.5t65.5 180.5q0 111 -65.5 182.5t-166 71.5t-165 -72t-64.5 -182.5t64.5 -181t165 -70.5zM365 811l-156 289h141 l115 -289h-100z" />
<glyph unicode="&#xf3;" horiz-adv-x="831" d="M358 811l115 289h141l-155 -289h-101zM416 -16q-150 0 -253.5 101t-103.5 251q0 152 103.5 253t253.5 101q152 0 255 -101.5t103 -252.5q0 -150 -103 -251t-255 -101zM415.5 84q100.5 0 166 71.5t65.5 180.5q0 111 -65.5 182.5t-166 71.5t-165 -72t-64.5 -182.5 t64.5 -181t165 -70.5z" />
<glyph unicode="&#xf4;" horiz-adv-x="831" d="M190 834l224 266h6l223 -266h-102l-123 118l-125 -118h-103zM416 -16q-150 0 -253.5 101t-103.5 251q0 152 103.5 253t253.5 101q152 0 255 -101.5t103 -252.5q0 -150 -103 -251t-255 -101zM415.5 84q100.5 0 166 71.5t65.5 180.5q0 111 -65.5 182.5t-166 71.5t-165 -72 t-64.5 -182.5t64.5 -181t165 -70.5z" />
<glyph unicode="&#xf5;" horiz-adv-x="831" d="M416 -16q-150 0 -253.5 101t-103.5 251q0 152 103.5 253t253.5 101q152 0 255 -101.5t103 -252.5q0 -150 -103 -251t-255 -101zM415.5 84q100.5 0 166 71.5t65.5 180.5q0 111 -65.5 182.5t-166 71.5t-165 -72t-64.5 -182.5t64.5 -181t165 -70.5zM508 850q-45 0 -100.5 37 t-77.5 37q-39 0 -58 -70l-90 12q27 164 142 164q45 0 100 -37t78 -37q39 0 57 70l90 -12q-26 -164 -141 -164z" />
<glyph unicode="&#xf6;" horiz-adv-x="831" d="M549 864q-31 0 -55.5 22.5t-24.5 55.5q0 35 23.5 57.5t56.5 22.5t56.5 -22.5t23.5 -57.5q0 -33 -24.5 -55.5t-55.5 -22.5zM282.5 864q-30.5 0 -55 22.5t-24.5 55.5q0 35 23.5 57.5t56 22.5t56 -22.5t23.5 -57.5q0 -33 -24.5 -55.5t-55 -22.5zM416 -16q-150 0 -253.5 101 t-103.5 251q0 152 103.5 253t253.5 101q152 0 255 -101.5t103 -252.5q0 -150 -103 -251t-255 -101zM415.5 84q100.5 0 166 71.5t65.5 180.5q0 111 -65.5 182.5t-166 71.5t-165 -72t-64.5 -182.5t64.5 -181t165 -70.5z" />
<glyph unicode="&#xf7;" horiz-adv-x="702" d="M625 459h-547v108h547v-108zM352 676q-39 0 -66.5 26.5t-27.5 67.5q0 39 28.5 65.5t65.5 26.5t64.5 -26.5t27.5 -65.5q0 -41 -27.5 -67.5t-64.5 -26.5zM352 162q-39 0 -66.5 26.5t-27.5 67.5q0 39 28.5 65.5t65.5 26.5t64.5 -26.5t27.5 -65.5q0 -41 -27.5 -67.5 t-64.5 -26.5z" />
<glyph unicode="&#xf8;" horiz-adv-x="835" d="M418 -16q-135 0 -236 84l-98 -88l-57 63l98 88q-63 94 -64 205q0 152 103.5 253t253.5 101q137 0 233 -86l103 92l57 -65l-100 -90q66 -92 65 -205q0 -150 -103 -251t-255 -101zM182 336q0 -66 31 -127l360 328q-61 57 -155 57q-104 0 -170 -72.5t-66 -185.5zM418 80 q104 0 169.5 72.5t65.5 183.5q0 74 -30 127l-361 -326q64 -57 156 -57z" />
<glyph unicode="&#xf9;" horiz-adv-x="870" d="M504 573v101h229v-578h105v-96h-228v121q-27 -63 -91 -100t-140 -37q-121 0 -189.5 69.5t-68.5 206.5v313h-103v101h226v-404q0 -182 164 -182q92 0 147 56.5t55 154.5v274h-106zM360 811l-155 289h141l115 -289h-101z" />
<glyph unicode="&#xfa;" horiz-adv-x="870" d="M354 811l115 289h141l-155 -289h-101zM504 573v101h229v-578h105v-96h-228v121q-27 -63 -91 -100t-140 -37q-121 0 -189.5 69.5t-68.5 206.5v313h-103v101h226v-404q0 -182 164 -182q92 0 147 56.5t55 154.5v274h-106z" />
<glyph unicode="&#xfb;" horiz-adv-x="870" d="M186 834l224 266h6l223 -266h-102l-123 118l-125 -118h-103zM504 573v101h229v-578h105v-96h-228v121q-27 -63 -91 -100t-140 -37q-121 0 -189.5 69.5t-68.5 206.5v313h-103v101h226v-404q0 -182 164 -182q92 0 147 56.5t55 154.5v274h-106z" />
<glyph unicode="&#xfc;" horiz-adv-x="870" d="M544.5 864q-30.5 0 -55 22.5t-24.5 55.5q0 35 23.5 57.5t56.5 22.5t56.5 -22.5t23.5 -57.5q0 -33 -25 -55.5t-55.5 -22.5zM278.5 864q-30.5 0 -55 22.5t-24.5 55.5q0 35 23.5 57.5t56 22.5t56 -22.5t23.5 -57.5q0 -33 -24.5 -55.5t-55 -22.5zM504 573v101h229v-578h105 v-96h-228v121q-27 -63 -91 -100t-140 -37q-121 0 -189.5 69.5t-68.5 206.5v313h-103v101h226v-404q0 -182 164 -182q92 0 147 56.5t55 154.5v274h-106z" />
<glyph unicode="&#xfd;" horiz-adv-x="776" d="M330 811l114 289h142l-156 -289h-100zM12 573v101h299v-101h-92l184 -397l168 397h-96v101h289v-101h-78l-397 -907h104v-100h-319v100h100l168 383l-252 524h-78z" />
<glyph unicode="&#xfe;" horiz-adv-x="872" d="M109 -340v1696h-105v98h227v-899q76 135 248 135q139 0 234.5 -101.5t95.5 -252.5q0 -150 -95.5 -251t-234.5 -101q-174 0 -248 131v-455h113v-94h-340v94h105zM453 86q102 0 166.5 69.5t64.5 180.5q0 113 -64.5 182.5t-166.5 69.5q-100 0 -164 -69.5t-64 -182.5 q0 -111 64 -180.5t164 -69.5z" />
<glyph unicode="&#xff;" horiz-adv-x="776" d="M520 864q-31 0 -55.5 22.5t-24.5 55.5q0 35 23.5 57.5t56.5 22.5t56.5 -22.5t23.5 -57.5q0 -33 -24.5 -55.5t-55.5 -22.5zM254 864q-31 0 -55.5 22.5t-24.5 55.5q0 35 23.5 57.5t56.5 22.5t56.5 -22.5t23.5 -57.5q0 -33 -24.5 -55.5t-55.5 -22.5zM12 573v101h299v-101 h-92l184 -397l168 397h-96v101h289v-101h-78l-397 -907h104v-100h-319v100h100l168 383l-252 524h-78z" />
<glyph unicode="&#x152;" horiz-adv-x="1949" d="M1726 1090v188h-600v-524h600v-107h-600v-532h629v188h109v-303h-1049q-340 0 -537.5 191.5t-197.5 505t196.5 505t538.5 191.5h1020v-303h-109zM825 117h166v1159h-166q-297 0 -451.5 -157.5t-154.5 -422t154.5 -422t451.5 -157.5z" />
<glyph unicode="&#x153;" horiz-adv-x="1396" d="M707 160q-39 -82 -116 -129t-175 -47q-150 0 -253.5 101t-103.5 251q0 152 103.5 253t253.5 101q98 0 175 -48t116 -132q41 84 116.5 132t171.5 48q160 0 254 -109.5t90 -279.5h-567q6 -98 72.5 -157.5t169.5 -59.5q129 0 211 90l75 -72q-98 -119 -286 -118 q-221 0 -307 176zM415.5 84q100.5 0 166 71.5t65.5 180.5q0 111 -65.5 182.5t-166 71.5t-165 -72t-64.5 -182.5t64.5 -181t165 -70.5zM774 389h436q-10 88 -65 144.5t-150 56.5q-88 0 -148.5 -55.5t-72.5 -145.5z" />
<glyph unicode="&#x178;" horiz-adv-x="1257" d="M438 0v98h125v459l-428 737h-106v99h391v-99h-139l354 -614l356 614h-143v99h381v-99h-107l-424 -733v-463h125v-98h-385zM762 1503q-31 0 -55.5 22.5t-24.5 55.5q0 35 23.5 57.5t56.5 22.5t56.5 -22.5t23.5 -57.5q0 -33 -24.5 -55.5t-55.5 -22.5zM495.5 1503 q-30.5 0 -55 22.5t-24.5 55.5q0 35 23.5 57.5t56 22.5t56 -22.5t23.5 -57.5q0 -33 -24.5 -55.5t-55 -22.5z" />
<glyph unicode="&#x2c6;" horiz-adv-x="1024" d="M285 834l223 266h6l223 -266h-102l-123 118l-125 -118h-102z" />
<glyph unicode="&#x2dc;" horiz-adv-x="1024" d="M604 850q-47 0 -102.5 37t-75.5 37q-39 0 -57 -70l-90 12q27 164 141 164q47 0 102.5 -37t75.5 -37q39 0 57 70l90 -12q-26 -164 -141 -164z" />
<glyph unicode="&#x2000;" horiz-adv-x="892" />
<glyph unicode="&#x2001;" horiz-adv-x="1785" />
<glyph unicode="&#x2002;" horiz-adv-x="892" />
<glyph unicode="&#x2003;" horiz-adv-x="1785" />
<glyph unicode="&#x2004;" horiz-adv-x="593" />
<glyph unicode="&#x2005;" horiz-adv-x="446" />
<glyph unicode="&#x2006;" horiz-adv-x="296" />
<glyph unicode="&#x2007;" horiz-adv-x="296" />
<glyph unicode="&#x2008;" horiz-adv-x="223" />
<glyph unicode="&#x2009;" horiz-adv-x="356" />
<glyph unicode="&#x200a;" horiz-adv-x="98" />
<glyph unicode="&#x2010;" horiz-adv-x="481" d="M74 336v106h332v-106h-332z" />
<glyph unicode="&#x2011;" horiz-adv-x="481" d="M74 336v106h332v-106h-332z" />
<glyph unicode="&#x2012;" horiz-adv-x="481" d="M74 336v106h332v-106h-332z" />
<glyph unicode="&#x2013;" horiz-adv-x="804" d="M74 336v106h657v-106h-657z" />
<glyph unicode="&#x2014;" horiz-adv-x="1267" d="M74 336v106h1120v-106h-1120z" />
<glyph unicode="&#x2018;" horiz-adv-x="356" d="M178 1059q-37 0 -65.5 27.5t-28.5 64.5t25 82l86 160h69l-53 -154q61 -25 61 -86q0 -39 -28.5 -66.5t-65.5 -27.5z" />
<glyph unicode="&#x2019;" horiz-adv-x="356" d="M92 1075l53 154q-25 8 -43 31.5t-18 54.5q0 39 28.5 65.5t65.5 26.5t65.5 -26.5t28.5 -65.5q0 -35 -24 -80l-86 -160h-70z" />
<glyph unicode="&#x201a;" horiz-adv-x="356" d="M92 -158l53 154q-25 8 -43 31.5t-18 54.5q0 39 28.5 66.5t65.5 27.5t65.5 -27.5t28.5 -66.5q0 -35 -24 -80l-86 -160h-70z" />
<glyph unicode="&#x201c;" horiz-adv-x="634" d="M457 1059q-37 0 -66 27.5t-29 64.5t25 82l86 160h68l-52 -154q61 -25 62 -86q0 -39 -28.5 -66.5t-65.5 -27.5zM178 1059q-37 0 -65.5 27.5t-28.5 64.5t25 82l86 160h69l-53 -154q61 -25 61 -86q0 -39 -28.5 -66.5t-65.5 -27.5z" />
<glyph unicode="&#x201d;" horiz-adv-x="634" d="M371 1075l51 154q-23 8 -41.5 31.5t-18.5 54.5q0 39 29 65.5t66 26.5t65.5 -26.5t28.5 -65.5q0 -35 -25 -80l-86 -160h-69zM92 1075l53 154q-25 8 -43 31.5t-18 54.5q0 39 28.5 65.5t65.5 26.5t65.5 -26.5t28.5 -65.5q0 -35 -24 -80l-86 -160h-70z" />
<glyph unicode="&#x201e;" horiz-adv-x="634" d="M371 -158l51 154q-23 8 -41.5 31.5t-18.5 54.5q0 39 29 66.5t66 27.5t65.5 -27.5t28.5 -66.5q0 -35 -25 -80l-86 -160h-69zM92 -158l53 154q-25 8 -43 31.5t-18 54.5q0 39 28.5 66.5t65.5 27.5t65.5 -27.5t28.5 -66.5q0 -35 -24 -80l-86 -160h-70z" />
<glyph unicode="&#x2022;" horiz-adv-x="518" d="M258 319q-68 0 -117 49.5t-49 118.5q0 72 49 120t117 48q70 0 119 -48t49 -120q0 -70 -50 -119t-118 -49z" />
<glyph unicode="&#x2026;" horiz-adv-x="1054" d="M876.5 -12q-38.5 0 -67.5 27.5t-29 68.5t29 68.5t67.5 27.5t67.5 -27.5t29 -68.5t-29 -68.5t-67.5 -27.5zM528 -12q-39 0 -67.5 27.5t-28.5 68.5t28.5 68.5t67.5 27.5q37 0 66 -27.5t29 -68.5t-29 -68.5t-66 -27.5zM178 -12q-39 0 -67.5 27.5t-28.5 68.5t28.5 68.5 t67.5 27.5t67.5 -27.5t28.5 -68.5t-28.5 -68.5t-67.5 -27.5z" />
<glyph unicode="&#x202f;" horiz-adv-x="356" />
<glyph unicode="&#x2039;" horiz-adv-x="423" d="M190 336l162 -270h-127l-159 266v8l159 262h127z" />
<glyph unicode="&#x203a;" horiz-adv-x="423" d="M72 66l161 266l-161 270h125l161 -266v-8l-161 -262h-125z" />
<glyph unicode="&#x205f;" horiz-adv-x="446" />
<glyph unicode="&#x20ac;" horiz-adv-x="1239" d="M748 958q-131 0 -234.5 -72.5t-144.5 -199.5h477v-92h-498q-4 -23 -4 -68q0 -27 4 -71l498 2v-95h-475q43 -123 145 -195.5t232 -72.5q213 0 333 166l93 -70q-150 -207 -424 -206q-176 0 -320.5 102t-196.5 276h-170v93h152q-4 23 -4 71q0 23 4 68h-152v92h170 q51 172 193.5 277.5t318.5 105.5q213 0 314 -125v109h104v-320h-92q-20 111 -113 168t-210 57z" />
<glyph unicode="&#x2122;" horiz-adv-x="1101" d="M864 936v63h56v279l-142 -217h-22l-140 215v-277h58v-63h-189v63h56v320h-56v74h142l141 -219l145 219h140v-74h-56v-320h56v-63h-189zM369 1255v60h-90v-316h63v-63h-213v63h66v316h-91v-60h-63v138h389v-138h-61z" />
<glyph unicode="&#xe000;" horiz-adv-x="675" d="M0 675h675v-675h-675v675z" />
<glyph unicode="&#xfb01;" horiz-adv-x="841" d="M37 0v96h88v477h-88v101h88v577q0 106 54 162.5t145 56.5q102 0 157 -71l-69 -72q-33 43 -82 43q-82 0 -82 -110v-586h461v-578h102v-96h-311v96h86v477h-338v-477h129v-96h-340zM647 860q-33 0 -58.5 24.5t-25.5 59.5q0 37 25.5 61.5t58.5 24.5q35 0 59.5 -24.5 t24.5 -61.5q0 -35 -24.5 -59.5t-59.5 -24.5z" />
<glyph unicode="&#xfb02;" horiz-adv-x="845" d="M500 0v96h86v1106q0 78 -48.5 126t-119.5 48q-78 0 -124 -47t-46 -127v-528h164v-101h-164v-477h129v-96h-340v96h88v477h-88v101h88v538q0 117 79 187.5t191 70.5q139 0 191 -96v80h123v-1358h104v-96h-313z" />
<glyph unicode="&#xfb03;" horiz-adv-x="1306" d="M502 0v96h88v477h-342v-477h129v-96h-340v96h88v477h-88v101h88v577q0 106 54 162.5t145 56.5q102 0 157 -71l-69 -72q-33 43 -82 43q-82 0 -82 -110v-586h342v577q0 106 54 162.5t144 56.5q102 0 158 -71l-69 -72q-33 43 -82 43q-82 0 -82 -110v-586h461v-578h102v-96 h-311v96h86v477h-338v-477h131v-96h-342zM1112 860q-33 0 -58.5 24.5t-25.5 59.5q0 37 25.5 61.5t58.5 24.5q35 0 59.5 -24.5t24.5 -61.5q0 -35 -24.5 -59.5t-59.5 -24.5z" />
<glyph unicode="&#xfb04;" horiz-adv-x="1310" d="M590 573h-342v-477h129v-96h-340v96h88v477h-88v101h88v577q0 106 54 162.5t145 56.5q102 0 157 -71l-69 -72q-33 43 -82 43q-82 0 -82 -110v-586h342v538q0 117 79 187.5t191 70.5q139 0 191 -96v80h123v-1358h104v-96h-313v96h86v1106q0 78 -48.5 126t-119.5 48 q-76 0 -123 -47t-47 -127v-528h164v-101h-164v-477h131v-96h-342v96h88v477z" />
</font>
</defs>
</svg>
